<svg width="24" height="23" viewBox="0 0 24 23" fill="none" xmlns="http://www.w3.org/2000/svg">
<path d="M4 10H7C7.55228 10 8 10.4477 8 11V15C8 15.5523 7.55228 16 7 16H4" stroke="#1A6FEE" stroke-width="2"/>
<path d="M4 6H11V18.5C11 20.433 9.433 22 7.5 22C5.567 22 4 20.433 4 18.5V6Z" stroke="#1A6FEE" stroke-width="2"/>
<path d="M1.72536 6C1.34058 4.6945 1.34058 3.3055 1.72536 2H13.2746C13.6594 3.3055 13.6594 4.6945 13.2746 6H1.72536Z" stroke="#1A6FEE" stroke-width="2"/>
<path d="M23 13.8684C23 16.01 21.1616 18 19 18C16.8384 18 15 16.01 15 13.8684C15 12.3683 16.0337 10.6414 17.2675 9.16404C17.861 8.45343 18.4573 7.85138 18.9062 7.42652C18.9382 7.39615 18.9695 7.36672 19 7.33825C19.0305 7.36672 19.0618 7.39615 19.0938 7.42652C19.5427 7.85138 20.139 8.45343 20.7325 9.16404C21.9663 10.6414 23 12.3683 23 13.8684Z" stroke="#1A6FEE" stroke-width="2"/>
</svg>
