<svg width="24" height="24" viewBox="0 0 24 24" fill="none" xmlns="http://www.w3.org/2000/svg">
<path d="M3.2978 18.1175L4.2971 18.0802C4.2887 17.8555 4.20483 17.6402 4.05904 17.4691L3.2978 18.1175ZM3.44293 22L2.44363 22.0373C2.45467 22.3327 2.59578 22.608 2.82908 22.7894C3.06239 22.9708 3.36399 23.0398 3.65293 22.9777L3.44293 22ZM7.50149 21.1283L7.87918 20.2023C7.69295 20.1264 7.48814 20.1083 7.29149 20.1506L7.50149 21.1283ZM22 12C22 16.883 17.6147 21 12 21V23C18.5356 23 24 18.1627 24 12H22ZM12 3C17.6147 3 22 7.11699 22 12H24C24 5.83731 18.5356 1 12 1V3ZM2 12C2 7.11699 6.38533 3 12 3V1C5.46441 1 0 5.83731 0 12H2ZM4.05904 17.4691C2.76058 15.9448 2 14.0486 2 12H0C0 14.56 0.954057 16.9083 2.53655 18.766L4.05904 17.4691ZM2.29849 18.1549L2.44363 22.0373L4.44224 21.9626L4.2971 18.0802L2.29849 18.1549ZM3.65293 22.9777L7.71149 22.106L7.29149 20.1506L3.23293 21.0223L3.65293 22.9777ZM12 21C10.5274 21 9.13303 20.7138 7.87918 20.2023L7.1238 22.0542C8.61646 22.6631 10.2673 23 12 23V21Z" fill="#B8C1CC"/>
<circle cx="7" cy="12" r="1.25" fill="#B8C1CC" stroke="#B8C1CC" stroke-width="0.5"/>
<circle cx="12" cy="12" r="1.25" fill="#B8C1CC" stroke="#B8C1CC" stroke-width="0.5"/>
<circle cx="17" cy="12" r="1.25" fill="#B8C1CC" stroke="#B8C1CC" stroke-width="0.5"/>
</svg>
